<mxfile host="65bd71144e">
    <diagram id="G1XpdR_IDQpA91IHTJ9U" name="Page-1">
        <mxGraphModel dx="782" dy="720" grid="1" gridSize="10" guides="1" tooltips="1" connect="1" arrows="1" fold="1" page="1" pageScale="2" pageWidth="1169" pageHeight="827" background="none" math="0" shadow="0">
            <root>
                <mxCell id="0"/>
                <mxCell id="1" parent="0"/>
                <mxCell id="25" value="" style="rounded=0;whiteSpace=wrap;html=1;shadow=0;fontSize=10;movable=0;resizable=0;rotatable=0;deletable=0;editable=0;connectable=0;" vertex="1" parent="1">
                    <mxGeometry x="150" y="200" width="2050" height="640" as="geometry"/>
                </mxCell>
                <mxCell id="2" value="" style="ellipse;whiteSpace=wrap;html=1;aspect=fixed;shadow=0;fillColor=#6d8764;fontColor=#ffffff;strokeColor=#3A5431;" vertex="1" parent="1">
                    <mxGeometry x="480" y="360" width="320" height="320" as="geometry"/>
                </mxCell>
                <mxCell id="3" value="" style="endArrow=none;html=1;shadow=0;exitX=1;exitY=0.5;exitDx=0;exitDy=0;" edge="1" parent="1" source="10" target="2">
                    <mxGeometry width="50" height="50" relative="1" as="geometry">
                        <mxPoint x="90" y="80" as="sourcePoint"/>
                        <mxPoint x="380" y="170" as="targetPoint"/>
                    </mxGeometry>
                </mxCell>
                <mxCell id="4" value="" style="endArrow=none;html=1;entryX=0;entryY=0.5;entryDx=0;entryDy=0;shadow=0;exitX=1;exitY=0.5;exitDx=0;exitDy=0;" edge="1" parent="1" source="11" target="2">
                    <mxGeometry width="50" height="50" relative="1" as="geometry">
                        <mxPoint x="70" y="180" as="sourcePoint"/>
                        <mxPoint x="142.44256065372315" y="203.41735434901773" as="targetPoint"/>
                    </mxGeometry>
                </mxCell>
                <mxCell id="5" value="" style="endArrow=none;html=1;entryX=0;entryY=1;entryDx=0;entryDy=0;shadow=0;exitX=1;exitY=0.5;exitDx=0;exitDy=0;" edge="1" parent="1" source="12" target="2">
                    <mxGeometry width="50" height="50" relative="1" as="geometry">
                        <mxPoint x="90" y="280" as="sourcePoint"/>
                        <mxPoint x="170" y="190" as="targetPoint"/>
                    </mxGeometry>
                </mxCell>
                <mxCell id="6" value="" style="endArrow=none;html=1;shadow=0;entryX=0;entryY=0.5;entryDx=0;entryDy=0;" edge="1" parent="1" target="13">
                    <mxGeometry width="50" height="50" relative="1" as="geometry">
                        <mxPoint x="800" y="519.5" as="sourcePoint"/>
                        <mxPoint x="880" y="520" as="targetPoint"/>
                    </mxGeometry>
                </mxCell>
                <mxCell id="7" value="Pembobot A" style="text;html=1;strokeColor=none;fillColor=none;align=center;verticalAlign=middle;whiteSpace=wrap;rounded=0;rotation=45;shadow=0;fontSize=25;" vertex="1" parent="1">
                    <mxGeometry x="410" y="320" width="150" height="30" as="geometry"/>
                </mxCell>
                <mxCell id="8" value="Pembobot C" style="text;html=1;strokeColor=none;fillColor=none;align=center;verticalAlign=middle;whiteSpace=wrap;rounded=0;rotation=-42.2;shadow=0;fontSize=25;" vertex="1" parent="1">
                    <mxGeometry x="410" y="690" width="150" height="30" as="geometry"/>
                </mxCell>
                <mxCell id="9" value="Pembobot B" style="text;html=1;strokeColor=none;fillColor=none;align=center;verticalAlign=middle;whiteSpace=wrap;rounded=0;rotation=0;shadow=0;fontSize=25;" vertex="1" parent="1">
                    <mxGeometry x="320" y="530" width="150" height="30" as="geometry"/>
                </mxCell>
                <mxCell id="10" value="Input A" style="text;html=1;strokeColor=#A50040;fillColor=#d80073;align=center;verticalAlign=middle;whiteSpace=wrap;rounded=0;shadow=0;fontSize=40;fontColor=#ffffff;" vertex="1" parent="1">
                    <mxGeometry x="240" y="260" width="160" height="50" as="geometry"/>
                </mxCell>
                <mxCell id="11" value="Input B" style="text;html=1;strokeColor=#006EAF;fillColor=#1ba1e2;align=center;verticalAlign=middle;whiteSpace=wrap;rounded=0;shadow=0;fontSize=40;fontColor=#ffffff;" vertex="1" parent="1">
                    <mxGeometry x="160" y="490" width="140" height="60" as="geometry"/>
                </mxCell>
                <mxCell id="12" value="Input C" style="text;html=1;strokeColor=#3700CC;fillColor=#6a00ff;align=center;verticalAlign=middle;whiteSpace=wrap;rounded=0;shadow=0;fontSize=40;fontColor=#ffffff;" vertex="1" parent="1">
                    <mxGeometry x="250" y="720" width="150" height="50" as="geometry"/>
                </mxCell>
                <mxCell id="13" value="Output" style="text;html=1;strokeColor=#6D1F00;fillColor=#a0522d;align=center;verticalAlign=middle;whiteSpace=wrap;rounded=0;shadow=0;fontSize=40;fontColor=#ffffff;" vertex="1" parent="1">
                    <mxGeometry x="890" y="490" width="140" height="60" as="geometry"/>
                </mxCell>
                <mxCell id="16" value="&lt;font style=&quot;font-size: 130px;&quot;&gt;Σ&lt;/font&gt;" style="text;html=1;strokeColor=none;fillColor=none;align=center;verticalAlign=middle;whiteSpace=wrap;rounded=0;shadow=0;fontSize=130;" vertex="1" parent="1">
                    <mxGeometry x="530" y="505" width="30" height="30" as="geometry"/>
                </mxCell>
                <mxCell id="17" value="&lt;font style=&quot;font-size: 130px;&quot;&gt;+&lt;/font&gt;" style="text;html=1;strokeColor=none;fillColor=none;align=center;verticalAlign=middle;whiteSpace=wrap;rounded=0;shadow=0;fontSize=130;" vertex="1" parent="1">
                    <mxGeometry x="613" y="450" width="30" height="120" as="geometry"/>
                </mxCell>
                <mxCell id="20" value="" style="rounded=0;whiteSpace=wrap;html=1;shadow=0;fontSize=25;fillColor=#fff2cc;strokeColor=#d6b656;" vertex="1" parent="1">
                    <mxGeometry x="670" y="465" width="100" height="110" as="geometry"/>
                </mxCell>
                <mxCell id="22" value="" style="curved=1;endArrow=none;html=1;shadow=0;sketch=0;strokeColor=#2D7600;fontSize=25;endFill=0;fillColor=#60a917;entryX=1;entryY=0;entryDx=0;entryDy=0;exitX=0;exitY=1;exitDx=0;exitDy=0;strokeWidth=3;" edge="1" parent="1" source="20" target="20">
                    <mxGeometry width="50" height="50" relative="1" as="geometry">
                        <mxPoint x="695" y="545" as="sourcePoint"/>
                        <mxPoint x="745" y="495" as="targetPoint"/>
                        <Array as="points">
                            <mxPoint x="770" y="575"/>
                            <mxPoint x="670" y="465"/>
                        </Array>
                    </mxGeometry>
                </mxCell>
                <mxCell id="23" value="&lt;font style=&quot;font-size: 13px;&quot;&gt;Fungsi Aktivasi&lt;/font&gt;" style="text;html=1;strokeColor=none;fillColor=none;align=center;verticalAlign=middle;whiteSpace=wrap;rounded=0;shadow=0;fontSize=13;" vertex="1" parent="1">
                    <mxGeometry x="670" y="430" width="100" height="30" as="geometry"/>
                </mxCell>
                <mxCell id="24" value="&lt;font style=&quot;font-size: 10px;&quot;&gt;ReLu, Tanh, sigmoid&lt;/font&gt;" style="text;html=1;strokeColor=none;fillColor=none;align=center;verticalAlign=middle;whiteSpace=wrap;rounded=0;shadow=0;fontSize=13;" vertex="1" parent="1">
                    <mxGeometry x="670" y="580" width="100" height="30" as="geometry"/>
                </mxCell>
                <mxCell id="26" value="(A)" style="text;html=1;align=center;verticalAlign=middle;whiteSpace=wrap;rounded=0;shadow=0;fontSize=30;fillColor=#f8cecc;strokeColor=#b85450;" vertex="1" parent="1">
                    <mxGeometry x="160" y="210" width="70" height="70" as="geometry"/>
                </mxCell>
                <mxCell id="27" value="(B)" style="text;html=1;align=center;verticalAlign=middle;whiteSpace=wrap;rounded=0;shadow=0;fontSize=30;fillColor=#f8cecc;strokeColor=#b85450;" vertex="1" parent="1">
                    <mxGeometry x="1110" y="210" width="70" height="70" as="geometry"/>
                </mxCell>
                <mxCell id="28" value="" style="ellipse;whiteSpace=wrap;html=1;aspect=fixed;shadow=0;fontSize=30;fillColor=#d80073;fontColor=#ffffff;strokeColor=#A50040;" vertex="1" parent="1">
                    <mxGeometry x="1240" y="284.86" width="50" height="50" as="geometry"/>
                </mxCell>
                <mxCell id="29" value="" style="ellipse;whiteSpace=wrap;html=1;aspect=fixed;shadow=0;fontSize=30;fillColor=#1ba1e2;fontColor=#ffffff;strokeColor=#006EAF;" vertex="1" parent="1">
                    <mxGeometry x="1240" y="509.85" width="50" height="50" as="geometry"/>
                </mxCell>
                <mxCell id="30" value="" style="ellipse;whiteSpace=wrap;html=1;aspect=fixed;shadow=0;fontSize=30;fillColor=#6a00ff;fontColor=#ffffff;strokeColor=#3700CC;" vertex="1" parent="1">
                    <mxGeometry x="1240" y="730" width="50" height="50" as="geometry"/>
                </mxCell>
                <mxCell id="38" value="" style="group" vertex="1" connectable="0" parent="1">
                    <mxGeometry x="1420" y="255" width="109.71" height="120" as="geometry"/>
                </mxCell>
                <mxCell id="31" value="" style="ellipse;whiteSpace=wrap;html=1;aspect=fixed;shadow=0;fillColor=#6d8764;fontColor=#ffffff;strokeColor=#3A5431;" vertex="1" parent="38">
                    <mxGeometry width="109.71000000000001" height="109.71000000000001" as="geometry"/>
                </mxCell>
                <mxCell id="32" value="&lt;font style=&quot;font-size: 50px;&quot;&gt;Σ&lt;/font&gt;" style="text;html=1;strokeColor=none;fillColor=none;align=center;verticalAlign=middle;whiteSpace=wrap;rounded=0;shadow=0;fontSize=50;" vertex="1" parent="38">
                    <mxGeometry x="17.1421875" y="54.375" width="10.2853125" height="11.25" as="geometry"/>
                </mxCell>
                <mxCell id="33" value="&lt;font style=&quot;font-size: 50px;&quot;&gt;+&lt;/font&gt;" style="text;html=1;strokeColor=none;fillColor=none;align=center;verticalAlign=middle;whiteSpace=wrap;rounded=0;shadow=0;fontSize=50;" vertex="1" parent="38">
                    <mxGeometry x="45.59821875" y="33.75" width="10.2853125" height="45" as="geometry"/>
                </mxCell>
                <mxCell id="34" value="" style="rounded=0;whiteSpace=wrap;html=1;shadow=0;fontSize=25;fillColor=#fff2cc;strokeColor=#d6b656;" vertex="1" parent="38">
                    <mxGeometry x="65.14031250000001" y="39.375" width="34.284375" height="41.25" as="geometry"/>
                </mxCell>
                <mxCell id="35" value="" style="curved=1;endArrow=none;html=1;shadow=0;sketch=0;strokeColor=#2D7600;fontSize=25;endFill=0;fillColor=#60a917;entryX=1;entryY=0;entryDx=0;entryDy=0;exitX=0;exitY=1;exitDx=0;exitDy=0;strokeWidth=3;" edge="1" parent="38" source="34" target="34">
                    <mxGeometry width="50" height="50" relative="1" as="geometry">
                        <mxPoint x="73.71140625" y="69.375" as="sourcePoint"/>
                        <mxPoint x="90.85359375" y="50.625" as="targetPoint"/>
                        <Array as="points">
                            <mxPoint x="99.4246875" y="80.625"/>
                            <mxPoint x="65.14031250000001" y="39.375"/>
                        </Array>
                    </mxGeometry>
                </mxCell>
                <mxCell id="39" value="" style="group" vertex="1" connectable="0" parent="1">
                    <mxGeometry x="1410" y="480" width="109.71" height="120" as="geometry"/>
                </mxCell>
                <mxCell id="40" value="" style="ellipse;whiteSpace=wrap;html=1;aspect=fixed;shadow=0;fillColor=#6d8764;fontColor=#ffffff;strokeColor=#3A5431;" vertex="1" parent="39">
                    <mxGeometry width="109.71000000000001" height="109.71000000000001" as="geometry"/>
                </mxCell>
                <mxCell id="41" value="&lt;font style=&quot;font-size: 50px;&quot;&gt;Σ&lt;/font&gt;" style="text;html=1;strokeColor=none;fillColor=none;align=center;verticalAlign=middle;whiteSpace=wrap;rounded=0;shadow=0;fontSize=50;" vertex="1" parent="39">
                    <mxGeometry x="17.1421875" y="54.375" width="10.2853125" height="11.25" as="geometry"/>
                </mxCell>
                <mxCell id="42" value="&lt;font style=&quot;font-size: 50px;&quot;&gt;+&lt;/font&gt;" style="text;html=1;strokeColor=none;fillColor=none;align=center;verticalAlign=middle;whiteSpace=wrap;rounded=0;shadow=0;fontSize=50;" vertex="1" parent="39">
                    <mxGeometry x="45.59821875" y="33.75" width="10.2853125" height="45" as="geometry"/>
                </mxCell>
                <mxCell id="43" value="" style="rounded=0;whiteSpace=wrap;html=1;shadow=0;fontSize=25;fillColor=#fff2cc;strokeColor=#d6b656;" vertex="1" parent="39">
                    <mxGeometry x="65.14031250000001" y="39.375" width="34.284375" height="41.25" as="geometry"/>
                </mxCell>
                <mxCell id="44" value="" style="curved=1;endArrow=none;html=1;shadow=0;sketch=0;strokeColor=#2D7600;fontSize=25;endFill=0;fillColor=#60a917;entryX=1;entryY=0;entryDx=0;entryDy=0;exitX=0;exitY=1;exitDx=0;exitDy=0;strokeWidth=3;" edge="1" parent="39" source="43" target="43">
                    <mxGeometry width="50" height="50" relative="1" as="geometry">
                        <mxPoint x="73.71140625" y="69.375" as="sourcePoint"/>
                        <mxPoint x="90.85359375" y="50.625" as="targetPoint"/>
                        <Array as="points">
                            <mxPoint x="99.4246875" y="80.625"/>
                            <mxPoint x="65.14031250000001" y="39.375"/>
                        </Array>
                    </mxGeometry>
                </mxCell>
                <mxCell id="45" value="" style="group" vertex="1" connectable="0" parent="1">
                    <mxGeometry x="1400" y="700" width="109.71" height="120" as="geometry"/>
                </mxCell>
                <mxCell id="46" value="" style="ellipse;whiteSpace=wrap;html=1;aspect=fixed;shadow=0;fillColor=#6d8764;fontColor=#ffffff;strokeColor=#3A5431;" vertex="1" parent="45">
                    <mxGeometry width="109.71000000000001" height="109.71000000000001" as="geometry"/>
                </mxCell>
                <mxCell id="47" value="&lt;font style=&quot;font-size: 50px;&quot;&gt;Σ&lt;/font&gt;" style="text;html=1;strokeColor=none;fillColor=none;align=center;verticalAlign=middle;whiteSpace=wrap;rounded=0;shadow=0;fontSize=50;" vertex="1" parent="45">
                    <mxGeometry x="17.1421875" y="54.375" width="10.2853125" height="11.25" as="geometry"/>
                </mxCell>
                <mxCell id="48" value="&lt;font style=&quot;font-size: 50px;&quot;&gt;+&lt;/font&gt;" style="text;html=1;strokeColor=none;fillColor=none;align=center;verticalAlign=middle;whiteSpace=wrap;rounded=0;shadow=0;fontSize=50;" vertex="1" parent="45">
                    <mxGeometry x="45.59821875" y="33.75" width="10.2853125" height="45" as="geometry"/>
                </mxCell>
                <mxCell id="49" value="" style="rounded=0;whiteSpace=wrap;html=1;shadow=0;fontSize=25;fillColor=#fff2cc;strokeColor=#d6b656;" vertex="1" parent="45">
                    <mxGeometry x="65.14031250000001" y="39.375" width="34.284375" height="41.25" as="geometry"/>
                </mxCell>
                <mxCell id="50" value="" style="curved=1;endArrow=none;html=1;shadow=0;sketch=0;strokeColor=#2D7600;fontSize=25;endFill=0;fillColor=#60a917;entryX=1;entryY=0;entryDx=0;entryDy=0;exitX=0;exitY=1;exitDx=0;exitDy=0;strokeWidth=3;" edge="1" parent="45" source="49" target="49">
                    <mxGeometry width="50" height="50" relative="1" as="geometry">
                        <mxPoint x="73.71140625" y="69.375" as="sourcePoint"/>
                        <mxPoint x="90.85359375" y="50.625" as="targetPoint"/>
                        <Array as="points">
                            <mxPoint x="99.4246875" y="80.625"/>
                            <mxPoint x="65.14031250000001" y="39.375"/>
                        </Array>
                    </mxGeometry>
                </mxCell>
                <mxCell id="51" value="" style="group" vertex="1" connectable="0" parent="1">
                    <mxGeometry x="1640" y="255" width="109.71" height="120" as="geometry"/>
                </mxCell>
                <mxCell id="52" value="" style="ellipse;whiteSpace=wrap;html=1;aspect=fixed;shadow=0;fillColor=#6d8764;fontColor=#ffffff;strokeColor=#3A5431;" vertex="1" parent="51">
                    <mxGeometry width="109.71000000000001" height="109.71000000000001" as="geometry"/>
                </mxCell>
                <mxCell id="53" value="&lt;font style=&quot;font-size: 50px;&quot;&gt;Σ&lt;/font&gt;" style="text;html=1;strokeColor=none;fillColor=none;align=center;verticalAlign=middle;whiteSpace=wrap;rounded=0;shadow=0;fontSize=50;" vertex="1" parent="51">
                    <mxGeometry x="17.1421875" y="54.375" width="10.2853125" height="11.25" as="geometry"/>
                </mxCell>
                <mxCell id="54" value="&lt;font style=&quot;font-size: 50px;&quot;&gt;+&lt;/font&gt;" style="text;html=1;strokeColor=none;fillColor=none;align=center;verticalAlign=middle;whiteSpace=wrap;rounded=0;shadow=0;fontSize=50;" vertex="1" parent="51">
                    <mxGeometry x="45.59821875" y="33.75" width="10.2853125" height="45" as="geometry"/>
                </mxCell>
                <mxCell id="55" value="" style="rounded=0;whiteSpace=wrap;html=1;shadow=0;fontSize=25;fillColor=#fff2cc;strokeColor=#d6b656;" vertex="1" parent="51">
                    <mxGeometry x="65.14031250000001" y="39.375" width="34.284375" height="41.25" as="geometry"/>
                </mxCell>
                <mxCell id="56" value="" style="curved=1;endArrow=none;html=1;shadow=0;sketch=0;strokeColor=#2D7600;fontSize=25;endFill=0;fillColor=#60a917;entryX=1;entryY=0;entryDx=0;entryDy=0;exitX=0;exitY=1;exitDx=0;exitDy=0;strokeWidth=3;" edge="1" parent="51" source="55" target="55">
                    <mxGeometry width="50" height="50" relative="1" as="geometry">
                        <mxPoint x="73.71140625" y="69.375" as="sourcePoint"/>
                        <mxPoint x="90.85359375" y="50.625" as="targetPoint"/>
                        <Array as="points">
                            <mxPoint x="99.4246875" y="80.625"/>
                            <mxPoint x="65.14031250000001" y="39.375"/>
                        </Array>
                    </mxGeometry>
                </mxCell>
                <mxCell id="57" value="" style="group" vertex="1" connectable="0" parent="1">
                    <mxGeometry x="1640" y="480" width="109.71" height="120" as="geometry"/>
                </mxCell>
                <mxCell id="58" value="" style="ellipse;whiteSpace=wrap;html=1;aspect=fixed;shadow=0;fillColor=#6d8764;fontColor=#ffffff;strokeColor=#3A5431;" vertex="1" parent="57">
                    <mxGeometry width="109.71000000000001" height="109.71000000000001" as="geometry"/>
                </mxCell>
                <mxCell id="59" value="&lt;font style=&quot;font-size: 50px;&quot;&gt;Σ&lt;/font&gt;" style="text;html=1;strokeColor=none;fillColor=none;align=center;verticalAlign=middle;whiteSpace=wrap;rounded=0;shadow=0;fontSize=50;" vertex="1" parent="57">
                    <mxGeometry x="17.1421875" y="54.375" width="10.2853125" height="11.25" as="geometry"/>
                </mxCell>
                <mxCell id="60" value="&lt;font style=&quot;font-size: 50px;&quot;&gt;+&lt;/font&gt;" style="text;html=1;strokeColor=none;fillColor=none;align=center;verticalAlign=middle;whiteSpace=wrap;rounded=0;shadow=0;fontSize=50;" vertex="1" parent="57">
                    <mxGeometry x="45.59821875" y="33.75" width="10.2853125" height="45" as="geometry"/>
                </mxCell>
                <mxCell id="61" value="" style="rounded=0;whiteSpace=wrap;html=1;shadow=0;fontSize=25;fillColor=#fff2cc;strokeColor=#d6b656;" vertex="1" parent="57">
                    <mxGeometry x="65.14031250000001" y="39.375" width="34.284375" height="41.25" as="geometry"/>
                </mxCell>
                <mxCell id="62" value="" style="curved=1;endArrow=none;html=1;shadow=0;sketch=0;strokeColor=#2D7600;fontSize=25;endFill=0;fillColor=#60a917;entryX=1;entryY=0;entryDx=0;entryDy=0;exitX=0;exitY=1;exitDx=0;exitDy=0;strokeWidth=3;" edge="1" parent="57" source="61" target="61">
                    <mxGeometry width="50" height="50" relative="1" as="geometry">
                        <mxPoint x="73.71140625" y="69.375" as="sourcePoint"/>
                        <mxPoint x="90.85359375" y="50.625" as="targetPoint"/>
                        <Array as="points">
                            <mxPoint x="99.4246875" y="80.625"/>
                            <mxPoint x="65.14031250000001" y="39.375"/>
                        </Array>
                    </mxGeometry>
                </mxCell>
                <mxCell id="63" value="" style="group" vertex="1" connectable="0" parent="1">
                    <mxGeometry x="1640" y="700" width="109.71" height="120" as="geometry"/>
                </mxCell>
                <mxCell id="64" value="" style="ellipse;whiteSpace=wrap;html=1;aspect=fixed;shadow=0;fillColor=#6d8764;fontColor=#ffffff;strokeColor=#3A5431;" vertex="1" parent="63">
                    <mxGeometry width="109.71000000000001" height="109.71000000000001" as="geometry"/>
                </mxCell>
                <mxCell id="65" value="&lt;font style=&quot;font-size: 50px;&quot;&gt;Σ&lt;/font&gt;" style="text;html=1;strokeColor=none;fillColor=none;align=center;verticalAlign=middle;whiteSpace=wrap;rounded=0;shadow=0;fontSize=50;" vertex="1" parent="63">
                    <mxGeometry x="17.1421875" y="54.375" width="10.2853125" height="11.25" as="geometry"/>
                </mxCell>
                <mxCell id="66" value="&lt;font style=&quot;font-size: 50px;&quot;&gt;+&lt;/font&gt;" style="text;html=1;strokeColor=none;fillColor=none;align=center;verticalAlign=middle;whiteSpace=wrap;rounded=0;shadow=0;fontSize=50;" vertex="1" parent="63">
                    <mxGeometry x="45.59821875" y="33.75" width="10.2853125" height="45" as="geometry"/>
                </mxCell>
                <mxCell id="67" value="" style="rounded=0;whiteSpace=wrap;html=1;shadow=0;fontSize=25;fillColor=#fff2cc;strokeColor=#d6b656;" vertex="1" parent="63">
                    <mxGeometry x="65.14031250000001" y="39.375" width="34.284375" height="41.25" as="geometry"/>
                </mxCell>
                <mxCell id="68" value="" style="curved=1;endArrow=none;html=1;shadow=0;sketch=0;strokeColor=#2D7600;fontSize=25;endFill=0;fillColor=#60a917;entryX=1;entryY=0;entryDx=0;entryDy=0;exitX=0;exitY=1;exitDx=0;exitDy=0;strokeWidth=3;" edge="1" parent="63" source="67" target="67">
                    <mxGeometry width="50" height="50" relative="1" as="geometry">
                        <mxPoint x="73.71140625" y="69.375" as="sourcePoint"/>
                        <mxPoint x="90.85359375" y="50.625" as="targetPoint"/>
                        <Array as="points">
                            <mxPoint x="99.4246875" y="80.625"/>
                            <mxPoint x="65.14031250000001" y="39.375"/>
                        </Array>
                    </mxGeometry>
                </mxCell>
                <mxCell id="69" value="" style="group" vertex="1" connectable="0" parent="1">
                    <mxGeometry x="1860" y="480" width="109.71" height="120" as="geometry"/>
                </mxCell>
                <mxCell id="70" value="" style="ellipse;whiteSpace=wrap;html=1;aspect=fixed;shadow=0;fillColor=#6d8764;fontColor=#ffffff;strokeColor=#3A5431;" vertex="1" parent="69">
                    <mxGeometry width="109.71000000000001" height="109.71000000000001" as="geometry"/>
                </mxCell>
                <mxCell id="71" value="&lt;font style=&quot;font-size: 50px;&quot;&gt;Σ&lt;/font&gt;" style="text;html=1;strokeColor=none;fillColor=none;align=center;verticalAlign=middle;whiteSpace=wrap;rounded=0;shadow=0;fontSize=50;" vertex="1" parent="69">
                    <mxGeometry x="17.1421875" y="54.375" width="10.2853125" height="11.25" as="geometry"/>
                </mxCell>
                <mxCell id="72" value="&lt;font style=&quot;font-size: 50px;&quot;&gt;+&lt;/font&gt;" style="text;html=1;strokeColor=none;fillColor=none;align=center;verticalAlign=middle;whiteSpace=wrap;rounded=0;shadow=0;fontSize=50;" vertex="1" parent="69">
                    <mxGeometry x="45.59821875" y="33.75" width="10.2853125" height="45" as="geometry"/>
                </mxCell>
                <mxCell id="73" value="" style="rounded=0;whiteSpace=wrap;html=1;shadow=0;fontSize=25;fillColor=#fff2cc;strokeColor=#d6b656;" vertex="1" parent="69">
                    <mxGeometry x="65.14031250000001" y="39.375" width="34.284375" height="41.25" as="geometry"/>
                </mxCell>
                <mxCell id="74" value="" style="curved=1;endArrow=none;html=1;shadow=0;sketch=0;strokeColor=#2D7600;fontSize=25;endFill=0;fillColor=#60a917;entryX=1;entryY=0;entryDx=0;entryDy=0;exitX=0;exitY=1;exitDx=0;exitDy=0;strokeWidth=3;" edge="1" parent="69" source="73" target="73">
                    <mxGeometry width="50" height="50" relative="1" as="geometry">
                        <mxPoint x="73.71140625" y="69.375" as="sourcePoint"/>
                        <mxPoint x="90.85359375" y="50.625" as="targetPoint"/>
                        <Array as="points">
                            <mxPoint x="99.4246875" y="80.625"/>
                            <mxPoint x="65.14031250000001" y="39.375"/>
                        </Array>
                    </mxGeometry>
                </mxCell>
                <mxCell id="75" value="Output" style="text;html=1;strokeColor=#6D1F00;fillColor=#a0522d;align=center;verticalAlign=middle;whiteSpace=wrap;rounded=0;shadow=0;fontSize=40;fontColor=#ffffff;" vertex="1" parent="1">
                    <mxGeometry x="2050" y="510" width="140" height="50" as="geometry"/>
                </mxCell>
                <mxCell id="77" value="" style="endArrow=none;html=1;shadow=0;sketch=0;strokeColor=default;strokeWidth=3;fontSize=50;entryX=0;entryY=0.5;entryDx=0;entryDy=0;exitX=1;exitY=0.5;exitDx=0;exitDy=0;" edge="1" parent="1" source="70" target="75">
                    <mxGeometry width="50" height="50" relative="1" as="geometry">
                        <mxPoint x="2010" y="540" as="sourcePoint"/>
                        <mxPoint x="1770" y="430" as="targetPoint"/>
                    </mxGeometry>
                </mxCell>
                <mxCell id="80" value="" style="endArrow=none;html=1;shadow=0;sketch=0;strokeColor=default;strokeWidth=3;fontSize=50;exitX=1;exitY=0.5;exitDx=0;exitDy=0;entryX=0;entryY=0.5;entryDx=0;entryDy=0;" edge="1" parent="1" source="28" target="31">
                    <mxGeometry width="50" height="50" relative="1" as="geometry">
                        <mxPoint x="1370" y="480" as="sourcePoint"/>
                        <mxPoint x="1420" y="430" as="targetPoint"/>
                    </mxGeometry>
                </mxCell>
                <mxCell id="81" value="" style="endArrow=none;html=1;shadow=0;sketch=0;strokeColor=default;strokeWidth=3;fontSize=50;exitX=1;exitY=0.5;exitDx=0;exitDy=0;entryX=0;entryY=0.5;entryDx=0;entryDy=0;" edge="1" parent="1" source="29" target="40">
                    <mxGeometry width="50" height="50" relative="1" as="geometry">
                        <mxPoint x="1290" y="535.0100000000001" as="sourcePoint"/>
                        <mxPoint x="1410" y="540" as="targetPoint"/>
                    </mxGeometry>
                </mxCell>
                <mxCell id="82" value="" style="endArrow=none;html=1;shadow=0;sketch=0;strokeColor=default;strokeWidth=3;fontSize=50;entryX=0;entryY=0.5;entryDx=0;entryDy=0;" edge="1" parent="1" source="30" target="46">
                    <mxGeometry width="50" height="50" relative="1" as="geometry">
                        <mxPoint x="1330" y="780" as="sourcePoint"/>
                        <mxPoint x="1380" y="730" as="targetPoint"/>
                    </mxGeometry>
                </mxCell>
                <mxCell id="83" value="" style="endArrow=none;html=1;shadow=0;sketch=0;strokeColor=default;strokeWidth=3;fontSize=50;entryX=1;entryY=0.5;entryDx=0;entryDy=0;exitX=0;exitY=0.5;exitDx=0;exitDy=0;" edge="1" parent="1" source="40" target="28">
                    <mxGeometry width="50" height="50" relative="1" as="geometry">
                        <mxPoint x="1470" y="520" as="sourcePoint"/>
                        <mxPoint x="1520" y="470" as="targetPoint"/>
                    </mxGeometry>
                </mxCell>
                <mxCell id="84" value="" style="endArrow=none;html=1;shadow=0;sketch=0;strokeColor=default;strokeWidth=3;fontSize=50;entryX=1;entryY=0.5;entryDx=0;entryDy=0;exitX=0;exitY=0.5;exitDx=0;exitDy=0;" edge="1" parent="1" source="46" target="29">
                    <mxGeometry width="50" height="50" relative="1" as="geometry">
                        <mxPoint x="1419.9999999999977" y="754.995" as="sourcePoint"/>
                        <mxPoint x="1300.0000000000168" y="529.9999999999999" as="targetPoint"/>
                    </mxGeometry>
                </mxCell>
                <mxCell id="85" value="" style="endArrow=none;html=1;shadow=0;sketch=0;strokeColor=default;strokeWidth=3;fontSize=50;entryX=1;entryY=0.5;entryDx=0;entryDy=0;exitX=0;exitY=0.5;exitDx=0;exitDy=0;" edge="1" parent="1" source="46" target="28">
                    <mxGeometry width="50" height="50" relative="1" as="geometry">
                        <mxPoint x="1470" y="520" as="sourcePoint"/>
                        <mxPoint x="1520" y="470" as="targetPoint"/>
                    </mxGeometry>
                </mxCell>
                <mxCell id="86" value="" style="endArrow=none;html=1;shadow=0;sketch=0;strokeColor=default;strokeWidth=3;fontSize=50;entryX=0;entryY=0.5;entryDx=0;entryDy=0;exitX=1;exitY=0.5;exitDx=0;exitDy=0;" edge="1" parent="1" source="30" target="31">
                    <mxGeometry width="50" height="50" relative="1" as="geometry">
                        <mxPoint x="1470" y="520" as="sourcePoint"/>
                        <mxPoint x="1520" y="470" as="targetPoint"/>
                    </mxGeometry>
                </mxCell>
                <mxCell id="87" value="" style="endArrow=none;html=1;shadow=0;sketch=0;strokeColor=default;strokeWidth=3;fontSize=50;entryX=0;entryY=0.5;entryDx=0;entryDy=0;exitX=1;exitY=0.5;exitDx=0;exitDy=0;" edge="1" parent="1" source="29" target="31">
                    <mxGeometry width="50" height="50" relative="1" as="geometry">
                        <mxPoint x="1470" y="520" as="sourcePoint"/>
                        <mxPoint x="1520" y="470" as="targetPoint"/>
                    </mxGeometry>
                </mxCell>
                <mxCell id="88" value="" style="endArrow=none;html=1;shadow=0;sketch=0;strokeColor=default;strokeWidth=3;fontSize=50;exitX=1;exitY=0.5;exitDx=0;exitDy=0;entryX=0;entryY=0.5;entryDx=0;entryDy=0;" edge="1" parent="1" source="30" target="40">
                    <mxGeometry width="50" height="50" relative="1" as="geometry">
                        <mxPoint x="1330" y="690" as="sourcePoint"/>
                        <mxPoint x="1380" y="640" as="targetPoint"/>
                    </mxGeometry>
                </mxCell>
                <mxCell id="89" value="" style="endArrow=none;html=1;shadow=0;sketch=0;strokeColor=default;strokeWidth=3;fontSize=50;entryX=0;entryY=0.5;entryDx=0;entryDy=0;exitX=1;exitY=0.5;exitDx=0;exitDy=0;" edge="1" parent="1" source="31" target="52">
                    <mxGeometry width="50" height="50" relative="1" as="geometry">
                        <mxPoint x="1470" y="520" as="sourcePoint"/>
                        <mxPoint x="1520" y="470" as="targetPoint"/>
                    </mxGeometry>
                </mxCell>
                <mxCell id="90" value="" style="endArrow=none;html=1;shadow=0;sketch=0;strokeColor=default;strokeWidth=3;fontSize=50;entryX=0;entryY=0.5;entryDx=0;entryDy=0;exitX=1;exitY=0.5;exitDx=0;exitDy=0;" edge="1" parent="1" source="40" target="58">
                    <mxGeometry width="50" height="50" relative="1" as="geometry">
                        <mxPoint x="1470" y="520" as="sourcePoint"/>
                        <mxPoint x="1520" y="470" as="targetPoint"/>
                    </mxGeometry>
                </mxCell>
                <mxCell id="91" value="" style="endArrow=none;html=1;shadow=0;sketch=0;strokeColor=default;strokeWidth=3;fontSize=50;entryX=0;entryY=0.5;entryDx=0;entryDy=0;exitX=1;exitY=0.5;exitDx=0;exitDy=0;" edge="1" parent="1" source="46" target="64">
                    <mxGeometry width="50" height="50" relative="1" as="geometry">
                        <mxPoint x="1470" y="520" as="sourcePoint"/>
                        <mxPoint x="1520" y="470" as="targetPoint"/>
                    </mxGeometry>
                </mxCell>
                <mxCell id="92" value="" style="endArrow=none;html=1;shadow=0;sketch=0;strokeColor=default;strokeWidth=3;fontSize=50;entryX=0;entryY=0.5;entryDx=0;entryDy=0;exitX=1;exitY=0.5;exitDx=0;exitDy=0;" edge="1" parent="1" source="58" target="70">
                    <mxGeometry width="50" height="50" relative="1" as="geometry">
                        <mxPoint x="1730" y="520" as="sourcePoint"/>
                        <mxPoint x="1780" y="470" as="targetPoint"/>
                    </mxGeometry>
                </mxCell>
                <mxCell id="93" value="" style="endArrow=none;html=1;shadow=0;sketch=0;strokeColor=default;strokeWidth=3;fontSize=50;entryX=1;entryY=0.5;entryDx=0;entryDy=0;exitX=0;exitY=0.5;exitDx=0;exitDy=0;" edge="1" parent="1" source="70" target="52">
                    <mxGeometry width="50" height="50" relative="1" as="geometry">
                        <mxPoint x="1730" y="520" as="sourcePoint"/>
                        <mxPoint x="1780" y="470" as="targetPoint"/>
                    </mxGeometry>
                </mxCell>
                <mxCell id="94" value="" style="endArrow=none;html=1;shadow=0;sketch=0;strokeColor=default;strokeWidth=3;fontSize=50;entryX=0;entryY=0.5;entryDx=0;entryDy=0;exitX=1;exitY=0.5;exitDx=0;exitDy=0;" edge="1" parent="1" source="64" target="70">
                    <mxGeometry width="50" height="50" relative="1" as="geometry">
                        <mxPoint x="1730" y="520" as="sourcePoint"/>
                        <mxPoint x="1780" y="470" as="targetPoint"/>
                    </mxGeometry>
                </mxCell>
                <mxCell id="95" value="" style="endArrow=none;html=1;shadow=0;sketch=0;strokeColor=default;strokeWidth=3;fontSize=50;entryX=0;entryY=0.5;entryDx=0;entryDy=0;exitX=1;exitY=0.5;exitDx=0;exitDy=0;" edge="1" parent="1" source="40" target="52">
                    <mxGeometry width="50" height="50" relative="1" as="geometry">
                        <mxPoint x="1730" y="520" as="sourcePoint"/>
                        <mxPoint x="1780" y="470" as="targetPoint"/>
                    </mxGeometry>
                </mxCell>
                <mxCell id="96" value="" style="endArrow=none;html=1;shadow=0;sketch=0;strokeColor=default;strokeWidth=3;fontSize=50;entryX=1;entryY=0.5;entryDx=0;entryDy=0;exitX=0;exitY=0.5;exitDx=0;exitDy=0;" edge="1" parent="1" source="58" target="31">
                    <mxGeometry width="50" height="50" relative="1" as="geometry">
                        <mxPoint x="1730" y="520" as="sourcePoint"/>
                        <mxPoint x="1780" y="470" as="targetPoint"/>
                    </mxGeometry>
                </mxCell>
                <mxCell id="97" value="" style="endArrow=none;html=1;shadow=0;sketch=0;strokeColor=default;strokeWidth=3;fontSize=50;entryX=1;entryY=0.5;entryDx=0;entryDy=0;exitX=0;exitY=0.5;exitDx=0;exitDy=0;" edge="1" parent="1" source="64" target="31">
                    <mxGeometry width="50" height="50" relative="1" as="geometry">
                        <mxPoint x="1730" y="520" as="sourcePoint"/>
                        <mxPoint x="1780" y="470" as="targetPoint"/>
                    </mxGeometry>
                </mxCell>
                <mxCell id="98" value="" style="endArrow=none;html=1;shadow=0;sketch=0;strokeColor=default;strokeWidth=3;fontSize=50;entryX=1;entryY=0.5;entryDx=0;entryDy=0;exitX=0;exitY=0.5;exitDx=0;exitDy=0;" edge="1" parent="1" source="64" target="40">
                    <mxGeometry width="50" height="50" relative="1" as="geometry">
                        <mxPoint x="1730" y="520" as="sourcePoint"/>
                        <mxPoint x="1780" y="470" as="targetPoint"/>
                    </mxGeometry>
                </mxCell>
                <mxCell id="99" value="" style="endArrow=none;html=1;shadow=0;sketch=0;strokeColor=default;strokeWidth=3;fontSize=50;entryX=1;entryY=0.5;entryDx=0;entryDy=0;exitX=0;exitY=0.5;exitDx=0;exitDy=0;" edge="1" parent="1" source="58" target="46">
                    <mxGeometry width="50" height="50" relative="1" as="geometry">
                        <mxPoint x="1730" y="520" as="sourcePoint"/>
                        <mxPoint x="1780" y="470" as="targetPoint"/>
                    </mxGeometry>
                </mxCell>
                <mxCell id="100" value="" style="endArrow=none;html=1;shadow=0;sketch=0;strokeColor=default;strokeWidth=3;fontSize=50;exitX=1;exitY=0.5;exitDx=0;exitDy=0;" edge="1" parent="1" source="46">
                    <mxGeometry width="50" height="50" relative="1" as="geometry">
                        <mxPoint x="1509.71" y="710" as="sourcePoint"/>
                        <mxPoint x="1640" y="310" as="targetPoint"/>
                    </mxGeometry>
                </mxCell>
                <mxCell id="101" value="" style="endArrow=none;dashed=1;html=1;dashPattern=1 3;strokeWidth=6;shadow=0;sketch=0;strokeColor=default;fontSize=50;" edge="1" parent="1">
                    <mxGeometry width="50" height="50" relative="1" as="geometry">
                        <mxPoint x="1425.86" y="827" as="sourcePoint"/>
                        <mxPoint x="1495.86" y="827" as="targetPoint"/>
                    </mxGeometry>
                </mxCell>
                <mxCell id="102" value="" style="endArrow=none;dashed=1;html=1;dashPattern=1 3;strokeWidth=6;shadow=0;sketch=0;strokeColor=default;fontSize=50;" edge="1" parent="1">
                    <mxGeometry width="50" height="50" relative="1" as="geometry">
                        <mxPoint x="1669.9999999999998" y="827" as="sourcePoint"/>
                        <mxPoint x="1739.9999999999998" y="827" as="targetPoint"/>
                    </mxGeometry>
                </mxCell>
                <mxCell id="103" value="&lt;p style=&quot;line-height: 40%;&quot;&gt;&lt;font style=&quot;font-size: 21px;&quot;&gt;Lapisan&lt;br&gt;&lt;/font&gt;&lt;font style=&quot;font-size: 21px;&quot;&gt;input&lt;/font&gt;&lt;/p&gt;" style="text;html=1;strokeColor=none;fillColor=none;align=center;verticalAlign=middle;whiteSpace=wrap;rounded=0;shadow=0;fontSize=40;" vertex="1" parent="1">
                    <mxGeometry x="1404.8600000000001" y="210" width="140" height="30" as="geometry"/>
                </mxCell>
                <mxCell id="104" value="&lt;p style=&quot;line-height: 40%;&quot;&gt;&lt;font style=&quot;font-size: 21px;&quot;&gt;Lapisan&lt;br&gt;&lt;/font&gt;&lt;span style=&quot;font-size: 21px;&quot;&gt;tersembunyi&lt;/span&gt;&lt;/p&gt;" style="text;html=1;strokeColor=none;fillColor=none;align=center;verticalAlign=middle;whiteSpace=wrap;rounded=0;shadow=0;fontSize=40;" vertex="1" parent="1">
                    <mxGeometry x="1624.8600000000001" y="210" width="140" height="30" as="geometry"/>
                </mxCell>
                <mxCell id="105" value="Input" style="text;html=1;strokeColor=none;fillColor=none;align=center;verticalAlign=middle;whiteSpace=wrap;rounded=0;shadow=0;fontSize=40;rotation=-90;" vertex="1" parent="1">
                    <mxGeometry x="1130" y="519.85" width="140" height="30" as="geometry"/>
                </mxCell>
                <mxCell id="106" value="" style="endArrow=none;dashed=1;html=1;dashPattern=1 3;strokeWidth=6;shadow=0;sketch=0;strokeColor=default;fontSize=50;" edge="1" parent="1">
                    <mxGeometry width="50" height="50" relative="1" as="geometry">
                        <mxPoint x="1229.9999999999995" y="826" as="sourcePoint"/>
                        <mxPoint x="1299.9999999999995" y="826" as="targetPoint"/>
                    </mxGeometry>
                </mxCell>
            </root>
        </mxGraphModel>
    </diagram>
</mxfile>